<svg xmlns="http://www.w3.org/2000/svg" xmlns:xlink="http://www.w3.org/1999/xlink" width="500" zoomAndPan="magnify" viewBox="0 0 375 323.249999" height="431" preserveAspectRatio="xMidYMid meet" version="1.0"><defs><clipPath id="e5002185ae"><path d="M 0.433594 0.164062 L 279.535156 0.164062 L 279.535156 242.601562 L 0.433594 242.601562 Z M 0.433594 0.164062 " clip-rule="nonzero"/></clipPath><clipPath id="dcf4b3b20f"><path d="M 0.433594 0 L 374.566406 0 L 374.566406 322.5 L 0.433594 322.5 Z M 0.433594 0 " clip-rule="nonzero"/></clipPath><clipPath id="5e5f053017"><path d="M 163.679688 281.628906 L 211.703125 281.628906 L 211.703125 322.339844 L 163.679688 322.339844 Z M 163.679688 281.628906 " clip-rule="nonzero"/></clipPath><clipPath id="6332c229b6"><path d="M 187.644531 322.339844 L 211.613281 281.628906 L 163.679688 281.628906 Z M 187.644531 322.339844 " clip-rule="nonzero"/></clipPath><clipPath id="507bc9bfab"><path d="M 279.808594 64.613281 L 338.757812 64.613281 L 338.757812 84.898438 L 279.808594 84.898438 Z M 279.808594 64.613281 " clip-rule="nonzero"/></clipPath><clipPath id="afded5247a"><path d="M 291.480469 64.613281 L 338.714844 64.613281 L 327.046875 84.898438 L 279.808594 84.898438 Z M 291.480469 64.613281 " clip-rule="nonzero"/></clipPath><clipPath id="5a49a374d5"><path d="M 325 84 L 327 84 L 327 87 L 325 87 Z M 325 84 " clip-rule="nonzero"/></clipPath><clipPath id="8dccad063a"><path d="M 326.417969 86.234375 L 324.796875 85.6875 L 325.417969 83.847656 L 327.035156 84.390625 Z M 326.417969 86.234375 " clip-rule="nonzero"/></clipPath><clipPath id="5267a1d1cc"><path d="M 325.035156 85.023438 C 326.265625 83.8125 326.847656 84.257812 326.898438 84.648438 C 326.867188 85.015625 326.484375 85.882812 326.160156 86.027344 C 325.921875 86.195312 325.132812 85.554688 325.132812 85.554688 " clip-rule="nonzero"/></clipPath><clipPath id="7462f84a4c"><path d="M 305.578125 17.789062 L 364.527344 17.789062 L 364.527344 38.070312 L 305.578125 38.070312 Z M 305.578125 17.789062 " clip-rule="nonzero"/></clipPath><clipPath id="c9426924b5"><path d="M 317.246094 17.789062 L 364.484375 17.789062 L 352.8125 38.070312 L 305.578125 38.070312 Z M 317.246094 17.789062 " clip-rule="nonzero"/></clipPath><clipPath id="6711f7ede0"><path d="M 315.660156 0.164062 L 374.566406 0.164062 L 374.566406 20.445312 L 315.660156 20.445312 Z M 315.660156 0.164062 " clip-rule="nonzero"/></clipPath><clipPath id="dab2defea0"><path d="M 327.328125 0.164062 L 374.566406 0.164062 L 362.894531 20.445312 L 315.660156 20.445312 Z M 327.328125 0.164062 " clip-rule="nonzero"/></clipPath></defs><g clip-path="url(#e5002185ae)"><path fill="#000000" d="M 233.003906 0.347656 C 232.695312 0.765625 232.382812 1.214844 232.09375 1.730469 C 204.355469 50.089844 176.5 98.386719 148.640625 146.671875 C 146.753906 149.929688 144.886719 153.1875 143 156.445312 C 142.3125 157.625 141.453125 158.699219 140.328125 160.328125 C 116.816406 119.546875 93.667969 79.421875 70.210938 38.738281 L 116.257812 38.738281 C 115.691406 39.917969 115.410156 40.625 115.035156 41.289062 C 110.5 49.222656 106.015625 57.1875 101.402344 65.078125 L 125.074219 105.964844 C 145.550781 70.492188 165.664062 35.617188 186.011719 0.347656 L 0.433594 0.347656 L 23.261719 39.789062 C 23.796875 40.3125 24.277344 40.96875 24.738281 41.792969 C 38.996094 66.695312 53.347656 91.566406 67.796875 116.351562 C 68.183594 117.019531 68.460938 117.648438 68.644531 118.238281 C 68.652344 118.292969 68.675781 118.347656 68.6875 118.410156 L 93.398438 161.089844 C 93.398438 161.078125 93.410156 161.078125 93.410156 161.066406 C 93.421875 161.066406 93.421875 161.058594 93.421875 161.058594 C 98.828125 170.40625 104.179688 179.667969 109.53125 188.910156 L 119.15625 205.535156 L 140.511719 242.457031 C 142.023438 239.875 143.011719 238.199219 143.984375 236.507812 C 150.550781 225.121094 157.125 213.726562 163.691406 202.339844 L 164 201.804688 L 279.503906 0.347656 Z M 233.003906 0.347656 " fill-opacity="1" fill-rule="nonzero"/></g><g clip-path="url(#dcf4b3b20f)"><path stroke-linecap="butt" transform="matrix(0.377995, -0.64577, 0.64577, 0.377995, 163.576536, 282.171976)" fill="none" stroke-linejoin="miter" d="M 0.000978094 27.500552 L 337.297872 27.500047 " stroke="#000000" stroke-width="55" stroke-opacity="1" stroke-miterlimit="4"/></g><g clip-path="url(#5e5f053017)"><g clip-path="url(#6332c229b6)"><path fill="#000000" d="M 163.679688 281.628906 L 211.542969 281.628906 L 211.542969 322.339844 L 163.679688 322.339844 Z M 163.679688 281.628906 " fill-opacity="1" fill-rule="nonzero"/></g></g><g clip-path="url(#507bc9bfab)"><g clip-path="url(#afded5247a)"><path fill="#000000" d="M 279.808594 64.613281 L 338.679688 64.613281 L 338.679688 84.898438 L 279.808594 84.898438 Z M 279.808594 64.613281 " fill-opacity="1" fill-rule="nonzero"/></g></g><g clip-path="url(#5a49a374d5)"><g clip-path="url(#8dccad063a)"><g clip-path="url(#5267a1d1cc)"><path fill="#000000" d="M 328.179688 91.703125 L 320.054688 88.96875 L 323.71875 78.082031 L 331.84375 80.816406 Z M 328.179688 91.703125 " fill-opacity="1" fill-rule="nonzero"/></g></g></g><g clip-path="url(#7462f84a4c)"><g clip-path="url(#c9426924b5)"><path fill="#000000" d="M 305.578125 17.789062 L 364.445312 17.789062 L 364.445312 38.070312 L 305.578125 38.070312 Z M 305.578125 17.789062 " fill-opacity="1" fill-rule="nonzero"/></g></g><g clip-path="url(#6711f7ede0)"><g clip-path="url(#dab2defea0)"><path fill="#000000" d="M 315.660156 0.164062 L 374.527344 0.164062 L 374.527344 20.445312 L 315.660156 20.445312 Z M 315.660156 0.164062 " fill-opacity="1" fill-rule="nonzero"/></g></g></svg>